<svg width="460" height="460" viewBox="0 0 460 460" fill="none" xmlns="http://www.w3.org/2000/svg">
  <!-- "Field recordings" palette (tailwind.config.js / app.css):
       tile #181716 (card) on #121110 page, border #34322e, ink #efede8.
       The "5" is the iA Writer Quattro Bold glyph outline (baked in so the
       SVG needs no font at render time); flat + octave dot are drawn marks. -->
  <rect x="10" y="10" width="440" height="440" rx="26" fill="#181716" stroke="#34322e" stroke-width="8"/>
  <!-- flat symbol -->
  <path fill-rule="evenodd" clip-rule="evenodd" fill="#efede8" d="M103 91 L129 91 L129 213 Q147 197 162 197 Q184 197 184 231 Q184 257 166 277 Q150 295 129 307 L103 307 Z M129 228 Q138 219 148 219 Q161 219 161 234 Q161 249 150 263 Q141 274.5 129 283 Z"/>
  <!-- digit 5: iA Writer Quattro Bold, 1000 upm, baseline at y=307.4 -->
  <g transform="translate(186.4 307.4) scale(0.3 -0.3)">
    <path fill="#efede8" d="M525 567H202L186 346H195Q219 399 256.0 427.5Q293 456 354 456Q412 456 460.5 429.5Q509 403 538.0 352.5Q567 302 567 234Q567 163 535.0 107.0Q503 51 441.5 19.5Q380 -12 295 -12Q124 -12 42 122L151 208Q178 162 211.5 136.0Q245 110 296 110Q351 110 380.0 140.0Q409 170 409 222V230Q409 279 379.5 307.0Q350 335 300 335Q233 335 189 286L66 303L92 698H525Z"/>
  </g>
  <!-- octave-down dot -->
  <circle cx="278" cy="351" r="18" fill="#efede8"/>
</svg>
