<svg width="460" height="460" viewBox="0 0 460 460" fill="none" xmlns="http://www.w3.org/2000/svg">
<g clip-path="url(#clip0_28_212)">
<path d="M0 163.556C0 106.306 0 77.6808 11.1416 55.8143C20.9419 36.58 36.58 20.9419 55.8143 11.1416C77.6808 0 106.306 0 163.556 0H296.444C353.694 0 382.319 0 404.186 11.1416C423.42 20.9419 439.058 36.58 448.858 55.8143C460 77.6808 460 106.306 460 163.556V296.444C460 353.694 460 382.319 448.858 404.186C439.058 423.42 423.42 439.058 404.186 448.858C382.319 460 353.694 460 296.444 460H163.556C106.306 460 77.6808 460 55.8143 448.858C36.58 439.058 20.9419 423.42 11.1416 404.186C0 382.319 0 353.694 0 296.444V163.556Z" fill="url(#paint0_linear_28_212)"/>
<path d="M289.75 371C284.25 371 279.917 369.583 276.75 366.75C273.583 363.917 272 360.083 272 355.25C272 350.25 273.583 346.25 276.75 343.25C279.917 340.417 284.25 339 289.75 339C295.25 339 299.583 340.417 302.75 343.25C305.917 346.25 307.5 350.25 307.5 355.25C307.5 360.083 305.917 363.917 302.75 366.75C299.583 369.583 295.25 371 289.75 371Z" fill="#ECEFF4"/>
<path d="M289.75 319C272.917 319 259.583 314.333 249.75 305C239.917 295.5 235 282.667 235 266.5H257.5C257.5 276.5 260.417 284.417 266.25 290.25C272.083 296.083 280 299 290 299C300 299 307.917 296.083 313.75 290.25C319.583 284.417 322.5 276.5 322.5 266.5V255.25C322.5 245.25 319.667 237.333 314 231.5C308.333 225.667 300.667 222.75 291 222.75H241.25V134H338.5V154.5H262.25L262.75 202.25H292.25C309.083 202.25 322.083 206.917 331.25 216.25C340.417 225.417 345 238.417 345 255.25V266.5C345 282.667 340 295.5 330 305C320.167 314.333 306.75 319 289.75 319Z" fill="#ECEFF4"/>
<path d="M139 260V75H161.5V155H161.75C162.75 148.5 165.5 143.333 170 139.5C174.5 135.5 180.167 133.5 187 133.5C196.667 133.5 204.417 137 210.25 144C216.083 151 219 160.417 219 172.25V193.5C219 204.667 215.667 214.75 209 223.75C202.5 232.75 193.417 239.417 181.75 243.75L139 260ZM161.5 229.25L174.75 224.25C181.583 221.583 186.917 217.583 190.75 212.25C194.583 206.917 196.5 200.667 196.5 193.5V172.25C196.5 166.417 194.917 161.917 191.75 158.75C188.75 155.583 184.5 154 179 154C173.5 154 169.167 155.583 166 158.75C163 161.917 161.5 166.417 161.5 172.25V229.25Z" fill="#ECEFF4"/>
</g>
<defs>
<linearGradient id="paint0_linear_28_212" x1="230" y1="0" x2="230" y2="460" gradientUnits="userSpaceOnUse">
<stop stop-color="#8FBCBB"/>
<stop offset="1" stop-color="#5E81AC"/>
</linearGradient>
<clipPath id="clip0_28_212">
<rect width="460" height="460" fill="white"/>
</clipPath>
</defs>
</svg>
